<svg xmlns="http://www.w3.org/2000/svg" width="64" height="64" fill="none"><path fill="#458043" d="M0 0h64v64H0z"/><path fill="#fff" fill-rule="evenodd" d="M25.5 38C32.292 38 38 32.293 38 25s-5.708-13-12.5-13S13 17.707 13 25s5.708 13 12.5 13Zm0 4c3.719 0 7.15-1.268 9.91-3.407L49.316 52.5a2 2 0 1 0 2.829-2.829L38.256 35.783C40.597 32.85 42 29.093 42 25c0-9.389-7.387-17-16.5-17S9 15.611 9 25s7.387 17 16.5 17Zm14 13a2.5 2.5 0 1 0 0-5 2.5 2.5 0 0 0 0 5ZM34 52.5a2.5 2.5 0 1 1-5 0 2.5 2.5 0 0 1 5 0ZM23.5 55a2.5 2.5 0 1 0 0-5 2.5 2.5 0 0 0 0 5Z" clip-rule="evenodd"/></svg>
